name D:\school\WTK\thesis\model\3dpredictsim\Results\batch_windlass\Pog_s1_tmt_aCst_d05_k800_WL10_ig24_act_TTC.mot
datacolumns 128
datarows 4
range 0.58700331 0.62222351
endheader
time	pelvis_tilt	pelvis_list	pelvis_rotation	pelvis_tx	pelvis_ty	pelvis_tz	hip_flexion_l	hip_adduction_l	hip_rotation_l	hip_flexion_r	hip_adduction_r	hip_rotation_r	knee_angle_l	knee_angle_r	ankle_angle_l	ankle_angle_r	subtalar_angle_l	subtalar_angle_r	tmt_angle_l	tmt_angle_r	mtp_angle_l	mtp_angle_r	lumbar_extension	lumbar_bending	lumbar_rotation	arm_flex_l	arm_add_l	arm_rot_l	arm_flex_r	arm_add_r	arm_rot_r	elbow_flex_l	elbow_flex_r	pro_sup_l	pro_sup_r	glut_med1_l/activation	glut_med2_l/activation	glut_med3_l/activation	glut_min1_l/activation	glut_min2_l/activation	glut_min3_l/activation	semimem_l/activation	semiten_l/activation	bifemlh_l/activation	bifemsh_l/activation	sar_l/activation	add_long_l/activation	add_brev_l/activation	add_mag1_l/activation	add_mag2_l/activation	add_mag3_l/activation	tfl_l/activation	pect_l/activation	grac_l/activation	glut_max1_l/activation	glut_max2_l/activation	glut_max3_l/activation	iliacus_l/activation	psoas_l/activation	quad_fem_l/activation	gem_l/activation	peri_l/activation	rect_fem_l/activation	vas_med_l/activation	vas_int_l/activation	vas_lat_l/activation	med_gas_l/activation	lat_gas_l/activation	soleus_l/activation	tib_post_l/activation	flex_dig_l/activation	flex_hal_l/activation	tib_ant_l/activation	per_brev_l/activation	per_long_l/activation	per_tert_l/activation	ext_dig_l/activation	ext_hal_l/activation	ercspn_l/activation	intobl_l/activation	extobl_l/activation	glut_med1_r/activation	glut_med2_r/activation	glut_med3_r/activation	glut_min1_r/activation	glut_min2_r/activation	glut_min3_r/activation	semimem_r/activation	semiten_r/activation	bifemlh_r/activation	bifemsh_r/activation	sar_r/activation	add_long_r/activation	add_brev_r/activation	add_mag1_r/activation	add_mag2_r/activation	add_mag3_r/activation	tfl_r/activation	pect_r/activation	grac_r/activation	glut_max1_r/activation	glut_max2_r/activation	glut_max3_r/activation	iliacus_r/activation	psoas_r/activation	quad_fem_r/activation	gem_r/activation	peri_r/activation	rect_fem_r/activation	vas_med_r/activation	vas_int_r/activation	vas_lat_r/activation	med_gas_r/activation	lat_gas_r/activation	soleus_r/activation	tib_post_r/activation	flex_dig_r/activation	flex_hal_r/activation	tib_ant_r/activation	per_brev_r/activation	per_long_r/activation	per_tert_r/activation	ext_dig_r/activation	ext_hal_r/activation	ercspn_r/activation	intobl_r/activation	extobl_r/activation	
          0.58700331	         -2.92539584	          0.33480806	         -8.31976422	          0.73375414	          0.85676666	          0.00125737	         32.70478925	         -0.61873433	         -0.99493960	        -16.04519509	         -2.11319469	          9.15325060	        -20.35324297	        -16.93754602	         -0.61071713	        -11.85539490	          7.46091854	         18.41821163	          0.01074699	         -2.74678399	          0.25550316	         33.12849282	          1.00473532	          2.37953045	          2.61582707	        -14.13355276	        -13.58734492	         10.27972669	          3.95042759	        -13.49452542	         17.51660428	         18.82653889	         38.68971418	         86.51662706	         86.51662706	          0.11265575	          0.05000096	          0.05000365	          0.05000163	          0.05000190	          0.05000238	          0.09803394	          0.06728186	          0.18567789	          0.05978640	          0.05004913	          0.05984168	          0.07438162	          0.20584122	          0.17157002	          0.14377134	          0.05972056	          0.05055329	          0.06468521	          0.05000183	          0.10518381	          0.13411356	          0.06994038	          0.07023266	          0.18627238	          0.05003091	          0.05000156	          0.05000034	          0.08693012	          0.09146790	          0.08582635	          0.07841918	          0.05978650	          0.05978341	          0.05000019	          0.05000297	          0.05978235	          0.46616464	          0.20870060	          0.12218668	          0.25473897	          0.49346642	          0.05000092	          0.05000013	          0.12455627	          0.13090642	          0.13803307	          0.06054671	          0.06882031	          0.17573765	          0.12217910	          0.08543595	          0.05000779	          0.05000094	          0.05000086	          0.05000060	          0.07148063	          0.12190688	          0.10031557	          0.05003386	          0.05003812	          0.05000419	          0.14542143	          0.05103552	          0.05000640	          0.05003085	          0.05002378	          0.05007906	          0.31272393	          0.58868927	          0.05036487	          0.05000747	          0.05043914	          0.28108063	          0.05978767	          0.07220434	          0.08468783	          0.14019556	          0.20261109	          0.05000015	          0.13759490	          0.14841409	          0.16076848	          0.14816061	          0.46669239	          0.36634399	          0.46709105	          0.37562387	          0.16904721	          0.05000005	          0.05766339	          0.05378642	
          0.59874338	         -2.91355541	          0.28773273	         -8.49085306	          0.75262394	          0.85519657	          0.00098566	         32.21158700	         -0.38430608	         -0.80073338	        -16.08080437	         -2.27887837	          8.99857181	        -20.74653725	        -18.33396060	         -0.97497656	        -14.56415579	          6.98946341	         18.75313903	          0.01444432	         -3.16604989	          0.37458690	         34.09712213	          1.24193163	          2.19461062	          2.68222526	        -15.44886209	        -13.57215920	         10.39256334	          3.58903885	        -13.54877532	         17.80060832	         18.77857284	         39.61541658	         86.51662706	         86.51662706	          0.11404593	          0.06771754	          0.05002197	          0.05000303	          0.05000312	          0.05000532	          0.08199104	          0.05627165	          0.15529229	          0.05000302	          0.05000388	          0.05004931	          0.06220992	          0.27438819	          0.23328152	          0.16213139	          0.05000361	          0.05000435	          0.05410075	          0.05978358	          0.14676750	          0.16100738	          0.05849506	          0.05873971	          0.25479849	          0.05000353	          0.06483020	          0.07148086	          0.23678790	          0.22189357	          0.20043655	          0.06558611	          0.05000262	          0.05000002	          0.05000140	          0.05000191	          0.05000040	          0.64235982	          0.17454738	          0.10219120	          0.52403736	          0.54838054	          0.33207444	          0.05000006	          0.10417299	          0.10948396	          0.11544450	          0.05063897	          0.05756103	          0.14697895	          0.10218515	          0.07145625	          0.05479692	          0.05000816	          0.05447004	          0.05012914	          0.05978550	          0.22390863	          0.15211971	          0.26286368	          0.05005594	          0.08979346	          0.12162383	          0.08003112	          0.07147772	          0.05000531	          0.05000332	          0.05000259	          0.26154762	          0.49235217	          0.05696665	          0.07147967	          0.06545574	          0.23508260	          0.05000395	          0.06038875	          0.13882443	          0.11725295	          0.16945436	          0.05000008	          0.11507789	          0.12412666	          0.13445924	          0.36034935	          0.48623681	          0.35593664	          0.70106124	          0.52210212	          0.25087449	          0.05000016	          0.07148119	          0.07155737	
          0.61048344	         -2.89679364	          0.25608426	         -8.62833401	          0.77160500	          0.85329427	          0.00072804	         31.57113652	         -0.12489988	         -0.53818965	        -15.92302710	         -2.41641496	          8.84529283	        -21.75207349	        -20.10709456	         -1.00734624	        -16.98386439	          6.46486808	         19.02433031	         -0.16319695	         -3.35884529	          0.43550383	         33.75708290	          1.48101322	          1.97974298	          2.73188455	        -16.72249775	        -13.57440895	         10.61285827	          3.16871217	        -13.61964362	         18.01226898	         18.68606946	         40.56268875	         86.51662706	         86.51662706	          0.25317475	          0.32356380	          0.46710272	          0.14140896	          0.05000958	          0.38171442	          0.07998765	          0.05000062	          0.12987925	          0.05000023	          0.05000133	          0.06123424	          0.12916923	          0.22948724	          0.22809891	          0.18730889	          0.05000060	          0.05979920	          0.08546379	          0.05000080	          0.23358145	          0.21692650	          0.05649640	          0.05000117	          0.21310194	          0.09487305	          0.29255425	          0.05978327	          0.23454300	          0.22832910	          0.21922450	          0.05978335	          0.05978322	          0.05978338	          0.14075431	          0.05000182	          0.05977728	          0.54438478	          0.14598325	          0.08546792	          0.43828027	          0.48092994	          0.27773306	          0.05000010	          0.08712539	          0.09156722	          0.12218344	          0.05978336	          0.05978338	          0.12292655	          0.08546327	          0.05977341	          0.08035368	          0.05000659	          0.05977423	          0.05000036	          0.05000282	          0.18726705	          0.25124579	          0.21984723	          0.06088165	          0.07510098	          0.10172092	          0.06695633	          0.05978400	          0.05978334	          0.05978419	          0.05978443	          0.21874619	          0.47732160	          0.05978361	          0.05978397	          0.05474423	          0.19661202	          0.08021564	          0.06245201	          0.11610641	          0.09806485	          0.14172366	          0.05000263	          0.09624574	          0.10381383	          0.11245545	          0.30587378	          0.40666981	          0.31007811	          0.80423160	          0.64277435	          0.45348237	          0.08547902	          0.05978352	          0.05984730	
          0.62222351	         -2.87924646	          0.23986864	         -8.72553881	          0.79037699	          0.85137530	          0.00047057	         30.82819611	          0.15920976	         -0.23959953	        -15.55073645	         -2.53342177	          8.69600540	        -22.76972186	        -22.23801038	         -0.77698836	        -19.03061568	          5.91978336	         19.20912185	         -0.24847003	         -3.29704466	          0.48852344	         31.71818595	          1.69984860	          1.73858322	          2.76728346	        -17.86779435	        -13.58264365	         10.95231847	          2.75128813	        -13.68713995	         18.17397750	         18.48603343	         41.44267873	         86.51662706	         86.51662706	          0.34682391	          0.46521505	          0.55252423	          0.15328616	          0.32971235	          0.31943279	          0.06689800	          0.07477603	          0.10862491	          0.05978463	          0.05000164	          0.05121353	          0.10803113	          0.19193301	          0.21985039	          0.18983093	          0.05000059	          0.05001397	          0.07148183	          0.29152403	          0.27938321	          0.22818699	          0.05000014	          0.05000016	          0.17823563	          0.07934886	          0.24467965	          0.05000006	          0.32646111	          0.32090552	          0.30495664	          0.05000002	          0.05000006	          0.05000000	          0.15385988	          0.07678492	          0.05000123	          0.65876759	          0.12209353	          0.07148136	          0.36655758	          0.48740629	          0.38026208	          0.05367985	          0.07286758	          0.07658251	          0.10219005	          0.05000032	          0.05000012	          0.12620750	          0.07147806	          0.05000054	          0.11271240	          0.05000038	          0.05000046	          0.05000061	          0.05020636	          0.16618102	          0.21013076	          0.18387030	          0.05091961	          0.06281178	          0.08507528	          0.05605257	          0.05000125	          0.05000237	          0.05000171	          0.05000133	          0.18294915	          0.44692812	          0.05000028	          0.05000110	          0.05000024	          0.16443708	          0.06812099	          0.05223261	          0.11271706	          0.08201684	          0.11853102	          0.05000031	          0.08049545	          0.08682522	          0.09405257	          0.27447016	          0.34012092	          0.25933807	          0.67262245	          0.79032317	          0.37927136	          0.12159205	          0.05000013	          0.05005350	
